<svg width="129.737579" height="108.267883" viewBox="0 0 129.738 108.268" fill="none" xmlns="http://www.w3.org/2000/svg" xmlns:xlink="http://www.w3.org/1999/xlink">
	<desc>
			Created with Pixso.
	</desc>
	<g id="图表">
		<g id="路径 33">
			<path d="M8.31802 84.7191L24.8754 84.7191L24.8754 105.434L8.31802 105.434L8.31802 84.7191ZM41.4327 51.6044L57.9901 51.6044L57.9901 105.434L41.4327 105.434L41.4327 51.6044ZM70.4619 68.1618L87.0192 68.1618L87.0192 105.434L70.4619 105.434L70.4619 68.1618ZM107.662 30.8898L124.22 30.8898L124.22 101.276L107.662 101.276L107.662 30.8898Z" fill-rule="evenodd" fill="#CAE4FF"/>
		</g>
		<g id="路径 34">
			<path d="M16.7724 70.7809C21.5747 70.7809 25.517 66.8387 25.4453 62.0363C25.4453 60.8895 25.2302 59.8143 24.8002 58.7392L45.5148 38.0246C46.5899 38.4546 47.6651 38.6696 48.8119 38.6696C50.8905 38.6696 52.8258 37.8812 54.4027 36.5193L72.3219 45.4789C72.3219 45.694 72.1786 45.8373 72.1786 46.0524C72.1786 50.8547 76.0491 54.797 80.8515 54.797C85.6538 54.797 89.5961 50.9264 89.5961 46.1241C89.5961 44.9772 89.381 43.8304 88.951 42.7552L109.809 16.6649C114.253 18.4568 119.342 16.3065 121.134 11.8625C122.424 8.63705 121.707 4.90985 119.199 2.47284C115.758 -0.82428 110.311 -0.82428 106.87 2.47284C104.361 4.98154 103.645 8.70874 105.007 12.0059L84.1486 38.0963C81.2099 37.0211 77.8411 37.5228 75.4041 39.6015L57.4132 30.6418C57.4132 30.4268 57.5565 30.2835 57.5565 30.0685C57.5565 27.7748 56.6247 25.5528 55.0478 23.9042C51.6073 20.6071 46.1599 20.6071 42.7194 23.9042C40.2824 26.4129 39.4939 30.1401 40.8558 33.3656L20.0695 54.1519C16.8441 52.8617 13.1885 53.6501 10.6082 56.0155C7.16768 59.3843 7.16768 64.9034 10.5365 68.3439C12.2567 69.9208 14.4787 70.8526 16.7724 70.7809ZM111.673 7.20352C112.461 6.48676 113.751 6.48676 114.468 7.34686C115.185 8.13531 115.185 9.28214 114.468 10.0706C113.679 10.7874 112.461 10.7874 111.673 10.0706C110.884 9.21048 110.884 7.99197 111.673 7.20352ZM79.5613 44.6188C80.3497 43.8304 81.5683 43.8304 82.3567 44.6188C83.1451 45.4073 83.1451 46.6258 82.3567 47.4142C81.5683 48.131 80.3497 48.131 79.5613 47.4142C78.7729 46.6258 78.7729 45.4073 79.5613 44.6188ZM47.4501 28.5632C48.2385 27.7748 49.457 27.7748 50.2455 28.5632C51.0339 29.3517 51.0339 30.5702 50.2455 31.3586C49.457 32.0754 48.2385 32.0754 47.4501 31.3586C46.805 30.6418 46.805 29.3517 47.4501 28.5632ZM15.4105 60.6745C16.199 59.886 17.4175 59.886 18.2059 60.6745C18.9944 61.4629 18.9944 62.7531 18.2059 63.4698C17.4175 64.1866 16.199 64.1866 15.4105 63.4698C14.7654 62.7531 14.9088 61.5346 15.4105 60.6745Z" fill-rule="evenodd" fill="#0972E7"/>
		</g>
		<g id="路径 35">
			<path d="M126.438 101.53L124.431 101.53L124.431 29.9967C124.431 28.1331 122.926 26.6279 121.062 26.6279L105.007 26.6279C103.143 26.6279 101.638 28.1331 101.638 29.9967L101.638 101.53L92.3198 101.53L92.3198 67.412C92.3198 65.5485 90.8146 64.0432 88.951 64.0432L72.8954 64.0432C71.0318 64.0432 69.5266 65.5485 69.5266 67.412L69.5266 101.53L60.2802 101.53L60.2802 51.4281C60.2802 49.5645 58.775 48.0593 56.9114 48.0593L40.8558 48.0593C38.9922 48.0593 37.487 49.5645 37.487 51.4281L37.487 101.53L28.169 101.53L28.169 83.4677C28.169 81.6041 26.6638 80.0988 24.8002 80.0988L8.74457 80.0988C6.88098 80.0988 5.37576 81.6041 5.37576 83.4677L5.37576 101.53L3.3688 101.53C1.50522 101.53 0 103.035 0 104.899C0 106.763 1.50522 108.268 3.3688 108.268L126.366 108.268C128.23 108.268 129.735 106.763 129.735 104.899C129.807 103.035 128.302 101.53 126.438 101.53ZM12.1134 101.53L12.1134 86.8365L21.4314 86.8365L21.4314 101.53L12.1134 101.53ZM44.2246 101.53L44.2246 54.7253L53.5426 54.7253L53.5426 101.53L44.2246 101.53ZM76.3358 101.53L76.3358 70.7809L85.6539 70.7809L85.6539 101.53L76.3358 101.53ZM108.447 101.53L108.447 33.3656L117.765 33.3656L117.765 101.53L108.447 101.53Z" fill-rule="evenodd" fill="#0972E7"/>
		</g>
	</g>
	<defs/>
</svg>
