<svg width="128.537415" height="150.530396" viewBox="0 0 128.537 150.53" fill="none" xmlns="http://www.w3.org/2000/svg" xmlns:xlink="http://www.w3.org/1999/xlink">
	<desc>
			Created with Pixso.
	</desc>
	<g id="闹钟">
		<g id="路径 36">
			<path d="M4.95551 63.3893C4.95554 96.1564 31.5186 122.719 64.2857 122.719C97.0528 122.719 123.616 96.1564 123.616 63.3893C123.616 30.6221 97.0528 4.05908 64.2857 4.05908C31.5185 4.05908 4.95551 30.6221 4.95551 63.3893Z" fill-rule="evenodd" fill="#FFBAB0"/>
		</g>
		<g id="路径 37">
			<path d="M64.2687 125.425C30.0092 125.416 2.24319 97.6375 2.24942 63.378C2.24942 29.1299 30.0205 1.35623 64.2799 1.35312C98.545 1.35312 126.319 29.1242 126.322 63.3836C126.288 97.6386 98.5237 125.397 64.2687 125.425ZM64.2687 6.76526C32.9867 6.7746 7.63522 32.1412 7.64456 63.4232C7.6539 94.7052 33.0206 120.057 64.3025 120.047C95.5845 120.038 120.936 94.6714 120.927 63.3894C120.889 32.119 95.5391 6.78387 64.2687 6.76526Z" fill-rule="evenodd" fill="#783741"/>
		</g>
		<g id="路径 38">
			<path d="M46.4425 18.7564C42.9379 10.532 34.1279 5.91125 25.3695 7.70398C16.6111 9.4967 10.325 17.2073 10.3338 26.1473C10.3338 31.3396 14.8664 38.8319 18.2658 42.2314C26.2994 32.794 34.4175 22.7648 46.4425 18.7564Z" fill-rule="evenodd" fill="#FFFFFF"/>
		</g>
		<g id="路径 39">
			<path d="M18.2658 46.2736C17.1927 46.2793 16.1624 45.8525 15.4076 45.0897C11.6191 41.3012 6.29156 32.9294 6.29156 26.1473C6.28873 15.2959 13.9185 5.93933 24.5485 3.75839C35.1785 1.57745 45.8762 7.17386 50.1464 17.1497C50.5931 18.1865 50.5859 19.3629 50.1265 20.3941C49.6671 21.4253 48.7974 22.2174 47.7279 22.5787C37.3096 26.0628 29.7495 34.9758 22.3586 43.5675L21.2762 44.8528C20.5415 45.7135 19.3965 46.2286 18.2658 46.2736ZM29.1408 11.3825C20.9968 11.4011 14.4021 18.0034 14.3928 26.1474C14.3928 28.7181 16.1855 32.6926 18.3334 35.8892C24.7265 28.4475 31.4747 21.1243 40.5569 16.7777C37.7527 13.3588 33.5625 11.3785 29.1408 11.3825Z" fill-rule="evenodd" fill="#783741"/>
		</g>
		<g id="路径 40">
			<path d="M82.1287 18.7565C85.6461 10.5543 94.4434 5.95352 103.187 7.74393C111.93 9.53433 118.211 17.2228 118.221 26.1474C117.792 31.9802 115.408 37.4979 111.455 41.8086C103.439 32.3713 94.1539 22.7648 82.1287 18.7565Z" fill-rule="evenodd" fill="#FFFFFF"/>
		</g>
		<g id="路径 41">
			<path d="M111.489 45.8508L111.32 45.8508C110.195 45.8032 109.14 45.2882 108.411 44.4301C100.58 35.2633 91.8365 26.2657 80.8432 22.5787C79.7706 22.2209 78.8968 21.4303 78.434 20.3987C77.9713 19.367 77.9618 18.1887 78.4077 17.1497C82.6923 7.18799 93.3846 1.60562 104.007 3.78427C114.63 5.96289 122.262 15.3033 122.28 26.1473C122.28 32.7771 118.237 40.7599 114.347 44.7514C113.576 45.4785 112.549 45.8734 111.489 45.8508ZM88.0311 16.7437C97.1133 20.955 104.572 27.9231 111.235 35.3479C112.931 32.5512 113.94 29.3923 114.178 26.1304C114.171 19.906 110.261 14.3549 104.402 12.2517C98.5438 10.1487 91.9958 11.9453 88.0311 16.7437Z" fill-rule="evenodd" fill="#783741"/>
		</g>
		<g id="路径 42">
			<path d="M48.9626 124.14L26.5531 146.55L26.5193 110.593L48.9626 124.14Z" fill-rule="evenodd" fill="#FFBAB0"/>
		</g>
		<g id="路径 43">
			<path d="M26.5531 150.524C24.3206 150.524 22.5109 148.714 22.5109 146.482L22.5109 110.525C22.5369 109.079 23.3344 107.756 24.6018 107.058C25.8693 106.359 27.4133 106.392 28.6503 107.143L51.0935 120.673C52.1486 121.324 52.8515 122.419 53.0047 123.65C53.1675 124.895 52.7425 126.145 51.8546 127.032L29.4114 149.408C28.6434 150.143 27.6158 150.544 26.5531 150.524ZM30.5783 117.696L30.5783 136.791L42.4173 124.952L30.5783 117.696Z" fill-rule="evenodd" fill="#783741"/>
		</g>
		<g id="路径 44">
			<path d="M80.9616 124.14L103.354 146.55L103.388 110.593L80.9616 124.14Z" fill-rule="evenodd" fill="#FFBAB0"/>
		</g>
		<g id="路径 45">
			<path d="M103.354 150.524C102.282 150.526 101.253 150.1 100.496 149.34L78.1034 126.998C77.2213 126.121 76.7925 124.886 76.9412 123.65C77.0898 122.415 77.7993 121.316 78.8645 120.673L101.308 107.143C102.542 106.389 104.086 106.356 105.352 107.055C106.618 107.754 107.411 109.079 107.43 110.525L107.43 146.55C107.414 148.203 106.398 149.681 104.859 150.287C104.377 150.458 103.866 150.538 103.354 150.524ZM87.4731 124.935L99.312 136.774L99.312 117.764L87.4731 124.935Z" fill-rule="evenodd" fill="#783741"/>
		</g>
		<g id="路径 46">
			<path d="M4.95551 74.1797C4.95554 106.947 31.5186 133.51 64.2857 133.51C97.0528 133.51 123.616 106.947 123.616 74.1797C123.616 41.4125 97.0528 14.8495 64.2857 14.8495C31.5185 14.8495 4.95551 41.4125 4.95551 74.1797Z" fill-rule="evenodd" fill="#FFBAB0"/>
		</g>
		<g id="路径 47">
			<path d="M64.2687 136.216C30.0092 136.206 2.24319 108.428 2.24942 74.1684C2.24942 39.9202 30.0205 12.1466 64.28 12.1435C98.545 12.1435 126.319 39.9146 126.322 74.174C126.288 108.429 98.5237 136.188 64.2687 136.216ZM64.2687 17.5386C32.9889 17.5479 7.63834 42.9111 7.64456 74.1909C7.64456 105.459 33.0002 130.818 64.28 130.821C95.5654 130.821 120.924 105.465 120.927 74.1853C120.902 42.9061 95.5479 17.5572 64.2687 17.5386Z" fill-rule="evenodd" fill="#783741"/>
		</g>
		<g id="路径 48">
			<path d="M103.354 150.524C102.312 150.525 101.31 150.119 100.564 149.391L85.6634 135.083C78.898 137.241 71.8257 138.281 64.7254 138.161C57.8747 138.36 51.0331 137.527 44.43 135.692L29.2085 149.476C28.0245 150.555 26.3148 150.833 24.8498 150.185C23.3848 149.536 22.4409 148.084 22.4433 146.482L22.4434 123.616C8.47873 110.927 0.36026 93.0445 0 74.1797L0 63.3893C0.229767 53.0624 3.02542 42.955 8.13507 33.9779C7.01065 31.5146 6.38416 28.8534 6.29156 26.1472C6.29852 18.3647 10.2633 11.1201 16.8145 6.91913C23.3658 2.71811 31.6039 2.1376 38.6796 5.37839C54.9971 -1.79279 73.5739 -1.79279 89.8915 5.37839C96.9672 2.13754 105.205 2.71805 111.757 6.91907C118.308 11.1201 122.273 18.3648 122.28 26.1474C122.195 28.9534 121.622 31.7232 120.588 34.3332C125.575 43.2226 128.304 53.1995 128.537 63.3893L128.537 74.1796C128.201 92.5217 120.597 109.98 107.396 122.719L107.396 146.55C107.386 148.171 106.417 149.631 104.927 150.27C104.425 150.46 103.89 150.546 103.354 150.524ZM29.1408 11.3824C20.9968 11.4011 14.4021 18.0034 14.3928 26.1473C14.5793 28.3215 15.2249 30.4313 16.287 32.3374C16.881 33.5395 16.843 34.9574 16.1855 36.1259C10.8073 45.6647 8.08426 54.7469 8.08426 63.3893L8.08426 74.1796C8.39169 91.3442 16.0463 107.553 29.1068 118.694C30.0138 119.462 30.5442 120.584 30.5613 121.772L30.5613 137.366L40.709 128.115C41.8277 127.085 43.4325 126.778 44.8527 127.32C49.9265 129.231 56.0658 130.093 64.6575 130.093C71.6214 130.283 78.557 129.135 85.0882 126.711C86.5628 126.134 88.2378 126.464 89.384 127.557L99.3289 136.994L99.3289 120.927C99.33 119.763 99.8285 118.655 100.699 117.882C113.026 106.659 120.179 90.8483 120.47 74.1797L120.47 63.3893C120.47 54.9329 117.832 45.9014 112.622 36.5487C112.012 35.4388 111.949 34.1086 112.453 32.9463C113.451 30.8224 114.025 28.5246 114.145 26.1811C114.151 20.9022 111.335 16.0227 106.761 13.3867C102.187 10.7508 96.5534 10.7604 91.9887 13.412C90.8318 14.063 89.4297 14.1072 88.234 13.5304C73.0943 6.26807 55.4769 6.26807 40.3371 13.5304C39.1285 14.1179 37.7061 14.0607 36.5486 13.3781C34.298 12.0725 31.7427 11.3841 29.1408 11.3824Z" fill-rule="evenodd" fill="#783741"/>
		</g>
		<g id="路径 49">
			<path d="M19.7879 74.1797C19.7879 98.7551 39.7102 118.677 64.2856 118.677C88.8609 118.677 108.783 98.7551 108.783 74.1797C108.783 49.6043 88.8609 29.682 64.2856 29.682C39.7102 29.682 19.7879 49.6043 19.7879 74.1797Z" fill-rule="evenodd" fill="#FFFFFF"/>
		</g>
		<g id="路径 50">
			<path d="M64.2687 121.366C38.1967 121.366 17.062 100.229 17.0651 74.1572C17.0651 48.0907 38.2023 26.9561 64.2743 26.9592C90.3407 26.9592 111.475 48.0964 111.472 74.1684C111.441 100.224 90.3247 121.338 64.2687 121.366ZM64.2687 32.3712C41.1807 32.3805 22.4709 51.103 22.4771 74.1909C22.4833 97.279 41.2032 115.991 64.2912 115.988C87.3736 115.988 106.091 97.2733 106.094 74.1853C106.069 51.0979 87.356 32.3899 64.2687 32.3712Z" fill-rule="evenodd" fill="#783741"/>
		</g>
		<g id="路径 51">
			<path d="M88.9443 76.8689L64.2686 76.8689C62.7807 76.8689 61.5719 75.6675 61.5626 74.1797L61.5626 47.1192C61.4822 46.1045 61.978 45.1305 62.8459 44.5984C63.7137 44.0664 64.8067 44.0664 65.6745 44.5984C66.5424 45.1304 67.0381 46.1045 66.9578 47.1192L66.9578 71.4736L88.9444 71.4736C90.3517 71.5851 91.4368 72.7596 91.4368 74.1712C91.4368 75.5828 90.3515 76.7573 88.9443 76.8689Z" fill-rule="evenodd" fill="#783741"/>
		</g>
		<g id="路径 52">
			<path d="M58.1124 74.1796C58.1124 77.589 60.8763 80.3528 64.2856 80.3528C67.695 80.3528 70.4589 77.589 70.4589 74.1796C70.4589 70.7703 67.695 68.0065 64.2856 68.0065C60.8763 68.0065 58.1124 70.7703 58.1124 74.1796Z" fill-rule="evenodd" fill="#FFBAB0"/>
		</g>
		<g id="路径 53">
			<path d="M64.2687 83.042C59.3741 83.042 55.4064 79.0742 55.4064 74.1797C55.4064 69.2852 59.3741 65.3174 64.2687 65.3174C69.1632 65.3174 73.131 69.2852 73.131 74.1797C73.1217 79.0703 69.1594 83.0327 64.2687 83.042ZM64.2687 70.7125C62.4123 70.759 60.9404 72.2933 60.9712 74.1501C61.0019 76.0068 62.5238 77.4916 64.3807 77.4765C66.2377 77.4614 67.7352 75.9521 67.7358 74.0951C67.6899 72.2133 66.151 70.712 64.2687 70.7125Z" fill-rule="evenodd" fill="#783741"/>
		</g>
		<g id="路径 54">
			<path d="M66.7549 38.4091C66.7642 39.7728 65.6663 40.8858 64.3026 40.8951C62.9389 40.9044 61.8259 39.8065 61.8165 38.4429C61.8071 37.0792 62.905 35.9661 64.2686 35.9567C65.6324 35.9473 66.7456 37.0453 66.7549 38.4091ZM102.509 74.1797C102.509 75.5434 101.403 76.6489 100.039 76.6489C98.6755 76.6489 97.57 75.5434 97.57 74.1797C97.57 72.8159 98.6755 71.7104 100.039 71.7104C100.696 71.7058 101.326 71.9645 101.79 72.4286C102.254 72.8926 102.513 73.5233 102.509 74.1797ZM66.7549 109.933C66.7549 111.295 65.6528 112.399 64.2913 112.403C62.9298 112.406 61.8227 111.306 61.8164 109.945C61.8102 108.583 62.9072 107.473 64.2686 107.464C65.6353 107.464 66.7456 108.567 66.7549 109.933ZM30.9842 74.1797C30.9842 75.1798 30.3808 76.0813 29.456 76.4625C28.5312 76.8437 27.4678 76.6293 26.763 75.9196C26.0581 75.2099 25.851 74.1451 26.2386 73.2229C26.6261 72.3008 27.5316 71.7035 28.5319 71.7104C29.1853 71.7104 29.8116 71.9711 30.272 72.4347C30.7323 72.8982 30.9887 73.5263 30.9842 74.1797Z" fill-rule="evenodd" fill="#783741"/>
		</g>
	</g>
	<defs/>
</svg>
