<svg width="129.158264" height="83.280029" viewBox="0 0 129.158 83.28" fill="none" xmlns="http://www.w3.org/2000/svg" xmlns:xlink="http://www.w3.org/1999/xlink">
	<desc>
			Created with Pixso.
	</desc>
	<g id="云">
		<g id="路径 55">
			<path d="M106.309 37.4507C106.316 37.121 106.357 36.7951 106.357 36.4619C106.357 18.6256 91.8989 4.16708 74.0625 4.16708C61.1951 4.16708 50.1182 11.7116 44.9257 22.6014C42.6754 21.47 40.1727 20.7741 37.4828 20.7741C29.2383 20.7741 22.4381 26.7726 21.0992 34.6346C11.2554 37.9957 4.16681 47.3025 4.16681 58.2817C4.16681 72.081 15.3533 83.268 29.1487 83.28L106.357 83.28C118.964 83.2149 129.158 72.9803 129.158 60.3653C129.158 47.7257 118.936 37.4873 106.309 37.4507Z" fill-rule="evenodd" fill="#98C4D8"/>
		</g>
		<g id="路径 56">
			<path d="M102.142 33.2836C102.15 32.9539 102.19 32.6281 102.19 32.2948C102.19 14.4585 87.7321 0 69.8957 0C57.0283 0 45.9514 7.54449 40.7589 18.4343C38.5085 17.3029 36.0059 16.607 33.316 16.607C25.0715 16.607 18.2713 22.6055 16.9324 30.4675C7.08856 33.8286 0 43.1354 0 54.1147C0 67.9139 11.1865 79.1009 24.9819 79.1129L102.191 79.1129C114.798 79.0479 124.992 68.8133 124.992 56.1982C124.991 43.5587 114.769 33.3203 102.142 33.2836Z" fill-rule="evenodd" fill="#EFD9A0"/>
		</g>
		<g id="路径 57">
			<path d="M43.644 28.4204C44.8163 30.1271 48.7067 29.4911 52.3333 27C55.96 24.5089 57.9496 21.1059 56.7773 19.3992C55.605 17.6925 51.7146 18.3285 48.088 20.8196C44.4613 23.3108 42.4717 26.7137 43.644 28.4204Z" fill-rule="evenodd" fill="#FEFEFE"/>
		</g>
		<g id="路径 58">
			<path d="M35.5938 41.5309C36.3754 42.6687 38.623 42.4823 40.6141 41.1146C42.6052 39.7469 43.5858 37.7158 42.8042 36.5781C42.0226 35.4402 39.775 35.6266 37.7838 36.9943C35.7927 38.362 34.8123 40.3931 35.5938 41.5309Z" fill-rule="evenodd" fill="#FEFEFE"/>
		</g>
	</g>
	<defs/>
</svg>
