<svg width="34.957947" height="34.957886" viewBox="0 0 34.9579 34.9579" fill="none" xmlns="http://www.w3.org/2000/svg" xmlns:xlink="http://www.w3.org/1999/xlink">
	<desc>
			Created with Pixso.
	</desc>
	<path id="路径 62" d="M4.36969 14.5658L30.5882 14.5658C31.5593 14.5658 32.0447 15.0514 32.0447 16.0223L32.0447 30.5883C32.0447 31.5592 31.5593 32.0448 30.5882 32.0448L4.36969 32.0448C3.39868 32.0448 2.91315 31.5592 2.91315 30.5883L2.91315 16.0223C2.91315 15.0514 3.39868 14.5658 4.36969 14.5658Z" fill-rule="evenodd" fill="#4A90E2"/>
	<path id="路径 63" d="M17.9174 1.95776L26.8301 12.1436C26.9805 12.3158 27.0162 12.5601 26.9214 12.7682C26.8267 12.9762 26.619 13.1096 26.3903 13.1093L8.56763 13.1093C8.33899 13.1096 8.13129 12.9762 8.0365 12.7682C7.94171 12.5601 7.97742 12.3158 8.12775 12.1436L17.0419 1.95776C17.1526 1.8313 17.3124 1.75879 17.4804 1.75879C17.6484 1.75879 17.8067 1.8313 17.9174 1.95776Z" fill-rule="evenodd" fill="#4A90E2"/>
	<path id="路径 64" d="M13.1093 13.1093L21.8488 13.1093L21.8488 24.7618L13.1093 24.7618L13.1093 13.1093ZM13.1093 26.2185L21.8488 26.2185L21.8488 27.675L13.1093 27.675L13.1093 26.2185Z" fill-rule="evenodd" fill="#4A90E2"/>
	<path id="路径 65" d="M17.7703 22.14C17.7703 22.9445 18.4224 23.5966 19.2269 23.5966C20.0314 23.5966 20.6835 22.9445 20.6835 22.14C20.6835 21.3356 20.0314 20.6835 19.2269 20.6835C18.4224 20.6835 17.7703 21.3356 17.7703 22.14Z" fill-rule="evenodd" fill="#E02020"/>
	<defs/>
</svg>
