<svg width="64.000000" height="68.968048" viewBox="0 0 64 68.968" fill="none" xmlns="http://www.w3.org/2000/svg" xmlns:xlink="http://www.w3.org/1999/xlink">
	<desc>
			Created with Pixso.
	</desc>
	<g id="山竹">
		<g id="路径 1">
			<path d="M19.455 18.8448C19.455 18.8448 -2.0365 22.7943 1.49512 46.5757C5.02673 70.3571 34.3415 69.1306 42.9373 66.5038C51.533 63.8734 68.7246 54.6851 60.8971 32.847C56.7541 21.5899 47.0844 18.5677 42.4788 18.8448C37.8773 19.1182 19.455 18.8448 19.455 18.8448Z" fill-rule="evenodd" fill="#ACACEF"/>
		</g>
		<g id="路径 2">
			<path d="M22.8268 58.9596C17.1937 56.1259 13.2347 51.2639 11.8284 45.6779C9.13739 34.986 13.4355 23.7954 13.4355 23.7954L15.6285 20.1194C9.50989 22.6021 -1.06995 29.4406 1.50385 46.5793C5.08209 70.3645 34.7835 69.1342 43.4927 66.5074C47.209 65.3843 52.5157 63.0641 56.7552 59.0778C43.0408 65.5247 30.5984 62.8683 22.8268 58.9596Z" fill-rule="evenodd" fill="#9E9AEA"/>
		</g>
		<g id="路径 3">
			<path d="M31.8221 68.968C25.7296 68.968 18.5634 67.7581 12.5161 63.931C5.65848 59.5914 1.5817 52.7773 0.396973 43.6694C-1.49127 29.155 3.71677 20.9714 8.41885 16.6611C13.5199 11.9854 19.0242 10.7881 19.2546 10.7377C19.3409 10.7209 19.4315 10.7083 19.5219 10.7125C19.7071 10.7167 37.8653 11.0192 42.3493 10.7167C47.2612 10.3806 56.2333 13.817 60.8778 24.6472C61.1535 25.2858 60.8655 26.0294 60.2443 26.3067C59.619 26.5881 58.8909 26.2941 58.6194 25.6597C54.485 16.0184 46.7224 12.9516 42.5139 13.233C38.0957 13.5355 21.5172 13.2709 19.6289 13.2373C18.835 13.4347 14.1946 14.7118 9.98209 18.6145C3.84845 24.2943 1.44189 32.6166 2.83646 43.3459C3.91837 51.6682 7.60843 57.8731 13.8079 61.7968C23.8661 68.1613 37.7171 66.649 42.4891 64.9811C46.496 63.5822 66.1927 55.3945 60.4787 31.4654C60.3183 30.789 60.7214 30.1084 61.3838 29.9404C62.0502 29.7724 62.7125 30.1925 62.877 30.8646C69.0971 56.9193 47.6479 65.8381 43.2873 67.3631C40.9218 68.1865 36.7175 68.968 31.8221 68.968Z" fill-rule="evenodd" fill="#000F04"/>
		</g>
		<g id="路径 4">
			<path d="M25.2094 10.8212C23.037 8.78182 14.2367 1.5776 8.00412 12.1438C7.38715 13.1894 7.65686 14.5342 8.64697 15.2398C10.8858 16.8395 13.8784 17.2311 15.419 17.3235C15.8217 17.3494 16.0471 17.7964 15.8254 18.1289C14.8463 19.6178 13.2614 23.1091 15.9879 27.5572C16.4941 28.3848 17.462 28.8244 18.4152 28.6434C24.404 27.5055 26.1552 25.6435 27.5776 22.9428C27.7808 22.5549 28.3165 22.5106 28.5936 22.8467C30.9802 25.7432 33.607 27.8565 40.1425 26.3417C41.0772 26.1238 41.7939 25.3516 41.9233 24.4021C42.4627 20.4527 41.3913 17.2754 39.4886 15.6573C39.1376 15.358 39.2965 14.7928 39.7472 14.693C41.3876 14.331 42.7989 13.4886 43.7484 12.4985C44.5796 11.6303 44.5759 10.2633 43.7779 9.36556C40.7891 6.00356 33.2153 1.74755 26.133 10.7547C25.9077 11.0466 25.4791 11.0724 25.2094 10.8212Z" fill-rule="evenodd" fill="#BFE5BD"/>
		</g>
		<g id="路径 5">
			<path d="M39.7472 14.7004C29.9235 13.943 31.2462 8.87419 33.788 5.52695C32.5429 5.83728 31.4272 6.27693 30.5331 6.7646C29.4654 7.38898 28.3829 8.24979 27.3078 9.39877C26.351 10.5699 26.0258 11.5157 26.0258 11.5157C26.0258 11.5157 25.915 11.2977 25.6859 10.9948C25.5197 11.0059 25.3461 10.9505 25.213 10.8249C24.6389 10.2852 24.0319 9.78183 23.3954 9.3175C23.0703 9.20297 22.7156 9.118 22.3239 9.07736C14.8684 15.6757 10.1764 14.2386 7.84152 12.4874C7.45361 13.4701 7.76025 14.6154 8.64691 15.2472C10.8858 16.8469 13.8783 17.2385 15.4189 17.3309C15.8217 17.3567 16.047 17.8038 15.8253 18.1363C15.2748 18.9712 14.5359 20.4342 14.4731 22.3443C18.4004 16.3223 23.6873 15.8309 24.5924 17.0316C27.9544 21.8972 19.2058 28.4882 19.1984 28.4957C24.5628 27.3467 26.2217 25.5327 27.5812 22.9539C27.7844 22.566 28.3201 22.5217 28.5972 22.8578C30.1896 24.7864 31.889 26.3676 34.7744 26.7592C35.1956 26.774 35.5835 26.8036 35.916 26.8516C31.9999 25.7506 28.1613 20.9515 29.2585 17.656C30.3558 14.3605 40.0354 16.2077 40.0354 16.2077C39.8617 16.0156 39.6807 15.8309 39.4886 15.6684C39.1339 15.3654 39.2964 14.7965 39.7472 14.7004Z" fill-rule="evenodd" fill="#A2DD9E"/>
		</g>
		<g id="路径 6">
			<path d="M17.9941 29.7998C16.8118 29.7998 15.6776 29.1791 15.0422 28.1447C14.4954 27.2543 14.0742 26.3417 13.7971 25.4329C13.6826 25.0634 13.5902 24.6866 13.52 24.3135C13.4078 23.7115 13.8048 23.1326 14.4067 23.0204C15.0086 22.9082 15.5876 23.3051 15.6998 23.9071C15.7552 24.1952 15.8254 24.4908 15.9141 24.779C16.1394 25.5105 16.483 26.2531 16.9337 26.9883C17.2035 27.4279 17.717 27.6607 18.2084 27.5646C24.0641 26.4526 25.4237 24.6608 26.5985 22.4367C26.8646 21.9283 27.3687 21.5881 27.9396 21.5315C28.5156 21.4717 29.0831 21.7048 29.4507 22.1522C31.5492 24.6977 33.7843 26.689 39.895 25.2703C40.3864 25.1558 40.7632 24.7494 40.8297 24.2617C41.2841 20.9441 40.4972 17.9737 38.7756 16.5107C38.2968 16.1042 38.0905 15.461 38.2436 14.8518C38.3955 14.2308 38.8893 13.7514 39.5145 13.6179C40.8334 13.326 42.0858 12.6425 42.954 11.7374C43.3752 11.2977 43.3752 10.581 42.954 10.1081C41.3358 8.29041 38.4468 6.38405 35.2029 6.4801C32.288 6.56877 29.5319 8.23868 27.0123 11.4455C26.7127 11.8253 26.268 12.0624 25.7857 12.0994C25.2992 12.1357 24.8196 11.9669 24.4631 11.6339C23.3252 10.5662 19.2982 7.12296 15.2158 7.70667C12.8328 8.04657 10.7306 9.73126 8.97205 12.7127C8.64325 13.2743 8.78363 13.9725 9.30457 14.3457C11.3069 15.7755 14.0446 16.1375 15.4965 16.2262C16.0765 16.2631 16.5975 16.6067 16.8561 17.1239C17.1147 17.6412 17.0778 18.2655 16.76 18.7495C16.5014 19.1411 16.2798 19.5623 16.1024 20.002C15.992 20.2746 15.7776 20.4921 15.5066 20.6065C15.2356 20.7208 14.9302 20.7227 14.6579 20.6115C14.3852 20.5011 14.1677 20.2868 14.0533 20.0157C13.939 19.7448 13.9372 19.4394 14.0483 19.167C14.1591 18.8899 14.2847 18.6202 14.4251 18.3542C12.6481 18.1547 10.0693 17.6116 8.01517 16.1449C6.55215 15.1031 6.14575 13.1413 7.06198 11.5822C9.17896 7.99115 11.8168 5.94809 14.9017 5.50845C19.4902 4.85452 23.6835 7.9579 25.6009 9.66846C28.4642 6.18823 31.671 4.37054 35.1401 4.2634C39.1375 4.14148 42.6658 6.44315 44.6165 8.63399C45.8024 9.96771 45.7766 12.0034 44.561 13.2706C43.5931 14.2792 42.3296 15.0624 40.933 15.5242C42.7545 17.5968 43.5377 20.8886 43.0352 24.5609C42.8431 25.9575 41.7865 27.1102 40.4047 27.4316C33.5404 29.0202 30.5256 26.774 28.2166 24.1102C26.6059 26.8368 24.3486 28.6508 18.6221 29.7407C18.4116 29.7813 18.201 29.7998 17.9941 29.7998Z" fill-rule="evenodd" fill="#000F04"/>
		</g>
		<g id="路径 7">
			<path d="M31.6606 1.10835C31.6606 1.10835 26.8134 6.59836 26.0782 12.9159C26.0339 13.7841 27.4045 15.2028 30.1976 14.1979C31.2949 13.7878 31.1138 12.3211 31.1138 11.1315C31.1138 9.94188 33.4931 3.06271 34.6827 1.83249C33.7221 1.10837 31.6606 1.10835 31.6606 1.10835Z" fill-rule="evenodd" fill="#A2DD9E"/>
		</g>
		<g id="路径 8">
			<path d="M31.858 15.6535C30.709 15.6535 29.948 15.2545 29.5231 14.9405C28.7953 14.4011 28.3889 13.6216 28.4258 12.8568C29.1906 6.27327 34.0784 0.609589 34.2853 0.373138C34.4959 0.133003 34.7988 0 35.1165 0C35.5229 0 37.6103 0.0443344 38.8073 0.949486C39.0623 1.1416 39.2211 1.43346 39.2433 1.7475C39.2655 2.06153 39.1546 2.37556 38.933 2.60461C37.9909 3.57627 35.704 10.0933 35.6744 11.1352C35.6744 11.2719 35.6781 11.416 35.6781 11.5638C35.7003 12.7719 35.7336 14.6007 34.0378 15.2361C33.1991 15.5391 32.4713 15.6535 31.858 15.6535ZM30.6462 12.9455C30.6758 13.0083 30.7719 13.1376 30.9861 13.2521C31.2928 13.4147 32.0021 13.6142 33.273 13.1561C33.4873 13.0748 33.4725 12.1179 33.4615 11.6044C33.4577 11.4455 33.4541 11.2867 33.4541 11.1315C33.4541 10.001 35.076 4.96907 36.4724 2.36074C36.188 2.30532 35.8887 2.26468 35.6117 2.24252C34.5513 3.56884 31.2521 8.03183 30.6462 12.9455ZM46.5584 51.3683C46.0478 51.3688 45.6029 51.0202 45.481 50.5243C45.3593 50.0283 45.5921 49.5133 46.0449 49.2772C51.0066 46.691 53.8403 42.749 54.4684 37.5657C54.5423 36.9598 55.0927 36.5238 55.7023 36.5977C56.3082 36.6716 56.7442 37.2221 56.6703 37.8317C56.1752 41.9252 54.1063 47.574 47.072 51.2427C46.9057 51.3276 46.7321 51.3683 46.5584 51.3683ZM55.488 33.5866C54.9449 33.5866 54.472 33.1876 54.3944 32.6372L54.1654 31.0559C54.0777 30.4499 54.4978 29.8875 55.1038 29.7998C55.7098 29.712 56.2722 30.1322 56.3599 30.7382L56.589 32.3194C56.6352 32.6385 56.5402 32.9619 56.3288 33.2052C56.1173 33.4486 55.8104 33.5878 55.488 33.5866Z" fill-rule="evenodd" fill="#000F04"/>
		</g>
	</g>
	<defs/>
</svg>
