<svg width="33.666748" height="33.666748" viewBox="0 0 33.6667 33.6667" fill="none" xmlns="http://www.w3.org/2000/svg" xmlns:xlink="http://www.w3.org/1999/xlink">
	<desc>
			Created with Pixso.
	</desc>
	<path id="路径 69" d="M13.8274 22.8453C13.8274 27.8257 17.8649 31.8632 22.8452 31.8632C27.8257 31.8632 31.8632 27.8257 31.8632 22.8453C31.8632 17.8649 27.8257 13.8274 22.8452 13.8274C17.8649 13.8274 13.8274 17.8649 13.8274 22.8453Z" fill-rule="evenodd" fill="#EEFAF0"/>
	<path id="路径 70" d="M32.1638 27.0536L30.0596 27.0536L30.0596 15.026C30.0596 8.31152 24.9871 2.72412 18.4867 1.90503L18.4867 1.65332C18.4867 0.744019 17.7427 0 16.8334 0C15.9241 0 15.1801 0.744019 15.1801 1.65332L15.1801 1.90503C8.67969 2.72412 3.60718 8.31152 3.60718 15.026L3.60718 27.0536L1.50299 27.0536C0.676331 27.0536 0 27.73 0 28.5566C0 29.3833 0.676331 30.0596 1.50299 30.0596L13.0797 30.0596C13.1586 32.0624 14.8119 33.6667 16.8334 33.6667C18.8549 33.6667 20.5082 32.0624 20.587 30.0596L32.1638 30.0596C32.9904 30.0596 33.6667 29.3833 33.6667 28.5566C33.6667 27.73 32.9904 27.0536 32.1638 27.0536ZM16.8334 31.262C16.1382 31.262 15.5634 30.736 15.4882 30.0596L18.1748 30.0596C18.1034 30.736 17.5286 31.262 16.8334 31.262ZM27.0536 27.0499L6.6131 27.0499L6.6131 15.026C6.6131 13.6545 6.88367 12.3207 7.41724 11.0657C7.93573 9.84827 8.67596 8.75488 9.61908 7.81177C10.5622 6.86865 11.6556 6.12842 12.873 5.60986C14.1281 5.07629 15.4619 4.80579 16.8334 4.80579C18.2048 4.80579 19.5387 5.07629 20.7937 5.60986C22.0111 6.12842 23.1046 6.86865 24.0477 7.81177C24.9908 8.75488 25.731 9.84827 26.2495 11.0657C26.7831 12.3207 27.0536 13.6545 27.0536 15.026L27.0536 27.0499Z" fill-rule="evenodd" fill="#1CC6A1"/>
	<path id="路径 71" d="M23.1459 14.7292C22.4019 14.7292 21.7932 15.338 21.7932 16.0819L21.7932 22.3944C21.7932 23.1384 22.4019 23.7472 23.1459 23.7472C23.8899 23.7472 24.4985 23.1384 24.4985 22.3944L24.4985 16.0819C24.4985 15.338 23.8899 14.7292 23.1459 14.7292Z" fill-rule="evenodd" fill="#08B28A"/>
	<defs/>
</svg>
