<svg width="128.000000" height="130.372345" viewBox="0 0 128 130.372" fill="none" xmlns="http://www.w3.org/2000/svg" xmlns:xlink="http://www.w3.org/1999/xlink">
	<desc>
			Created with Pixso.
	</desc>
	<g id="存钱罐">
		<g id="路径 9">
			<path d="M119.891 42.2891C119.788 42.0838 119.799 41.8395 119.922 41.6451C122.149 38.1152 124.329 32.762 123.584 25.9348C122.443 17.2689 121.396 12.1795 121.031 10.5193C120.955 10.177 120.625 9.95294 120.279 10.0073L107.158 11.9002C106.762 11.9313 100.128 12.5054 95.2557 16.0664C95.0461 16.2216 94.7747 16.2448 94.5496 16.1207C91.5662 14.5183 88.4512 13.1739 85.2388 12.1019C84.3774 11.8149 83.9197 10.8839 84.2455 10.0383L84.3464 9.76672C84.9051 8.31595 83.8344 6.76431 82.2825 6.76431L51.0213 6.76431C49.4385 6.76431 48.3677 8.37024 48.9807 9.8288C49.3376 10.6899 48.8798 11.6597 47.9875 11.9468C44.6827 13.0149 41.4788 14.3727 38.4128 16.0043C38.1878 16.1207 37.924 16.0974 37.7223 15.9578C32.8729 12.5054 26.4173 11.9545 26.0216 11.9235L12.8622 10.0227C12.5162 9.97156 12.189 10.1942 12.1095 10.5347C11.7449 12.195 10.6974 17.2844 9.55676 25.9502C8.83521 32.5447 10.8525 37.7659 12.994 41.3037C13.1105 41.4977 13.126 41.7382 13.0173 41.9399C8.96246 49.9786 6.78943 58.8344 6.66266 67.8368C6.46094 81.0412 10.6431 93.3613 17.859 103.408C17.9366 103.517 17.9754 103.641 17.9832 103.765L18.8367 126.38C18.8807 127.536 19.8295 128.45 20.9859 128.452L25.075 128.452C25.8896 128.452 26.6423 127.986 27.007 127.257L31.0649 119.305C31.2434 118.948 35.0686 119.514 35.4022 119.724C44.0458 125.022 54.1326 128.188 64.9177 128.444C76.9133 128.731 88.1173 125.465 97.5834 119.638C97.9171 119.429 98.3593 119.553 98.5378 119.91L102.185 127.265C102.549 128.002 103.294 128.459 104.117 128.459L112.046 128.459C113.204 128.46 114.154 127.544 114.196 126.388L115.065 103.47C115.072 103.346 115.111 103.222 115.181 103.113C122.032 93.3923 126.075 81.5455 126.075 68.7522C126.075 59.2407 123.84 50.2644 119.891 42.2891ZM64.9023 99.1333C52.3714 99.1333 39.7318 90.3588 39.7318 77.8293C39.7318 65.2999 50.9747 51.6377 63.5056 51.6377C76.0366 51.6377 87.8768 63.5465 87.8768 76.076C87.8768 88.6055 77.4332 99.1333 64.9023 99.1333Z" fill-rule="evenodd" fill="#FFA750"/>
		</g>
		<g id="路径 10">
			<path d="M111.204 130.372L103.001 130.372C101.272 130.372 99.7188 129.408 98.9536 127.855L95.954 121.81C85.7924 127.679 74.238 130.625 62.4465 130.349C51.8794 130.097 41.4957 127.181 32.3059 121.894L29.3523 127.855C28.5871 129.408 27.0338 130.365 25.3044 130.365L17.1017 130.365C14.6608 130.365 12.679 128.452 12.5872 126.011L11.7225 103.124C3.85638 91.9905 -0.199097 78.9517 0.00750732 65.3851C0.152893 55.9351 2.31073 46.8676 6.42743 38.4123C4.33081 34.7012 2.22656 29.0158 3.00702 21.8767C4.19305 12.8857 5.27197 7.56775 5.68518 5.70062C6.02844 4.17743 7.48285 3.17233 9.02905 3.38977L22.5422 5.341C23.5293 5.42517 29.7197 6.06793 34.8923 9.36588C37.7235 7.91968 40.6771 6.68005 43.6843 5.67004C43.3782 4.43808 43.6001 3.12195 44.3194 2.04306C45.1693 0.765198 46.603 -0.00189209 48.1377 0L80.4437 0C81.9512 0 83.3668 0.742249 84.2238 1.9895C84.9991 3.11646 85.2293 4.53137 84.8512 5.84601C87.7436 6.84076 90.5901 8.06506 93.3371 9.48831C98.548 6.08325 104.868 5.42517 105.871 5.341L119.384 3.38977C120.93 3.16788 122.399 4.18558 122.728 5.70062C123.141 7.56006 124.22 12.8551 125.406 21.8308C126.217 29.2148 123.983 35.0303 121.764 38.8103C125.903 47.4569 128 56.7233 128 66.3646C128 79.4722 124.059 92.0596 116.599 102.803L115.719 126.011C115.627 128.459 113.637 130.372 111.204 130.372ZM96.6274 116.561C96.9028 116.561 97.1783 116.599 97.4537 116.675C98.2572 116.905 98.9305 117.471 99.3055 118.221L103.07 125.819L111.135 125.781L112.031 102.167C112.053 101.594 112.237 101.043 112.566 100.568C119.659 90.5137 123.409 78.6916 123.409 66.3721C123.409 57.144 121.343 48.2907 117.264 40.0573C116.798 39.1238 116.851 38.0373 117.41 37.1497C119.376 34.0277 121.572 28.9315 120.853 22.3892C119.927 15.3725 119.07 10.6742 118.558 8.1568L106.491 9.9014C106.452 9.90906 106.376 9.91669 106.338 9.91669C106.031 9.93964 99.7417 10.4753 95.2194 13.7809C94.2935 14.4543 93.0463 14.5461 92.0439 14.0028C89.0773 12.4075 85.9797 11.0687 82.7852 10.0009C81.7593 9.65704 80.917 8.91144 80.4513 7.93488C79.9922 6.96307 79.954 5.86887 80.3365 4.85883L80.4437 4.57568L48.1453 4.591C48.5737 5.58575 48.5585 6.73352 48.0993 7.72064C47.636 8.72617 46.7731 9.49194 45.7196 9.83252C42.4335 10.8989 39.2461 12.2481 36.1931 13.8651C35.1976 14.3946 33.9881 14.3146 33.0711 13.6584C28.5565 10.4447 22.3967 9.92435 22.1366 9.90906C22.083 9.9014 21.9835 9.89374 21.93 9.88611L9.87067 8.14911C9.35803 10.6666 8.50098 15.3801 7.57513 22.4275C7.01654 27.493 8.10309 32.3443 10.8118 36.7977C11.3475 37.6853 11.3934 38.7565 10.9266 39.6824C6.87115 47.7321 4.74396 56.4017 4.6062 65.4461C4.41492 78.1788 8.26379 90.4218 15.7396 100.836C16.084 101.31 16.2753 101.869 16.2982 102.458L17.1782 125.766L25.3121 125.766L28.9774 118.297C29.3446 117.548 30.018 116.989 30.8214 116.752C31.6249 116.522 32.4972 116.637 33.2165 117.081C42.0773 122.506 52.2237 125.505 62.569 125.75C74.062 126.018 85.3102 122.996 95.0663 116.989C95.5331 116.714 96.0764 116.561 96.6274 116.561Z" fill-rule="evenodd" fill="#333333"/>
		</g>
		<g id="路径 11">
			<path d="M49.4386 79.4312C49.4386 89.0578 57.2426 96.8618 66.8693 96.8618C76.4959 96.8618 84.2999 89.0578 84.2999 79.4312C84.2999 69.8045 76.4959 62.0005 66.8693 62.0005C57.2426 62.0005 49.4386 69.8044 49.4386 79.4312Z" fill-rule="evenodd" fill="#FF917B"/>
		</g>
		<g id="路径 12">
			<path d="M64 98.4716C52.095 98.4716 42.4106 88.7871 42.4106 76.8822C42.4106 64.9771 52.095 55.2928 64 55.2928C75.905 55.2928 85.5894 64.9771 85.5894 76.8822C85.5894 88.7871 75.905 98.4716 64 98.4716ZM64 59.1434C54.2193 59.1434 46.2612 67.1015 46.2612 76.8822C46.2612 86.6629 54.2192 94.6209 64 94.6209C73.7807 94.6209 81.7387 86.6629 81.7387 76.8822C81.7387 67.1015 73.7807 59.1434 64 59.1434Z" fill-rule="evenodd" fill="#333333"/>
		</g>
		<g id="路径 13">
			<path d="M52.6259 76.5069C48.7179 76.5069 45.5465 74.1516 45.5465 71.2635C45.5465 68.3691 48.7266 66.0203 52.6259 66.0203C56.5251 66.0203 59.7052 68.3755 59.7052 71.2635C59.7052 74.1516 56.5251 76.5069 52.6259 76.5069ZM52.6259 69.8709C51.586 69.8709 50.7455 70.4934 50.7455 71.2635C50.7455 72.0337 51.586 72.6562 52.6259 72.6562C53.6656 72.6562 54.5062 72.0337 54.5062 71.2635C54.5062 70.4934 53.657 69.8709 52.6259 69.8709ZM75.9609 76.5069C72.0616 76.5069 68.8816 74.1516 68.8816 71.2635C68.8816 68.3691 72.0616 66.0203 75.9609 66.0203C79.8602 66.0203 83.0403 68.3755 83.0403 71.2635C83.0403 74.1516 79.8689 76.5069 75.9609 76.5069ZM75.9609 69.8709C74.9211 69.8709 74.0806 70.4934 74.0806 71.2635C74.0806 72.0337 74.9211 72.6562 75.9609 72.6562C77.0007 72.6562 77.8413 72.0337 77.8413 71.2635C77.8413 70.4934 77.0007 69.8709 75.9609 69.8709ZM47.7561 47.1327C46.3177 47.1327 45.1566 46.2727 45.1566 45.2073C45.1566 42.0434 41.6819 39.4698 37.41 39.4698C33.1382 39.4698 29.6635 42.0434 29.6635 45.2073C29.6635 46.2727 28.5024 47.1327 27.064 47.1327C25.6255 47.1327 24.4644 46.2727 24.4644 45.2073C24.4644 39.9191 30.27 35.6192 37.41 35.6192C44.5501 35.6192 50.3557 39.9191 50.3557 45.2073C50.3557 46.2727 49.1945 47.1327 47.7561 47.1327ZM101.462 47.1327C100.024 47.1327 98.8627 46.2727 98.8627 45.2073C98.8627 42.0434 95.388 39.4698 91.116 39.4698C86.8442 39.4698 83.3694 42.0434 83.3694 45.2073C83.3694 46.2727 82.2083 47.1327 80.77 47.1327C79.3315 47.1327 78.1704 46.2727 78.1704 45.2073C78.1704 39.9191 83.9761 35.6192 91.116 35.6192C98.2561 35.6192 104.062 39.9191 104.062 45.2073C104.062 46.2727 102.901 47.1327 101.462 47.1327Z" fill-rule="evenodd" fill="#333333"/>
		</g>
	</g>
	<defs/>
</svg>
